<!DOCTYPE svg PUBLIC "-//W3C//DTD SVG 1.1//EN" "http://www.w3.org/Graphics/SVG/1.1/DTD/svg11.dtd">
<!-- Uploaded to: SVG Repo, www.svgrepo.com, Transformed by: SVG Repo Mixer Tools -->
<svg fill="#ffffff" version="1.1" id="Capa_1" xmlns="http://www.w3.org/2000/svg" xmlns:xlink="http://www.w3.org/1999/xlink" width="800px" height="800px" viewBox="0 0 481.766 481.766" xml:space="preserve" stroke="#ffffff" stroke-width="2.4088300000000005">
<g id="SVGRepo_bgCarrier" stroke-width="0"/>
<g id="SVGRepo_tracerCarrier" stroke-linecap="round" stroke-linejoin="round"/>
<g id="SVGRepo_iconCarrier"> <g> <g> <path d="M326.022,0H155.745c-21.091,0-38.26,17.167-38.26,38.26v405.248c0,21.095,17.168,38.258,38.26,38.258h170.277 c21.094,0,38.258-17.163,38.258-38.258V38.26C364.28,17.167,347.116,0,326.022,0z M352.433,443.508 c0,14.559-11.852,26.411-26.41,26.411H155.745c-14.559,0-26.41-11.853-26.41-26.411V38.26c0-14.561,11.852-26.411,26.41-26.411 h170.277c14.559,0,26.41,11.85,26.41,26.411V443.508L352.433,443.508z"/> <path d="M336.813,64.48H141.535c-2.181,0-3.951,1.77-3.951,3.951v323.348c0,2.178,1.77,3.95,3.951,3.95h195.279 c2.184,0,3.95-1.772,3.95-3.95V68.431C340.764,66.242,338.997,64.48,336.813,64.48z M332.862,387.818h-187.38V72.379h187.38 V387.818z"/> <circle cx="209.095" cy="45.251" r="5.397"/> <path d="M224.712,49.201h32.342c2.184,0,3.95-1.77,3.95-3.948c0-2.181-1.767-3.951-3.95-3.951h-32.342 c-2.179,0-3.948,1.77-3.948,3.951C220.764,47.431,222.533,49.201,224.712,49.201z"/> <path d="M304.873,439.959h-2.474v-1.493l-4.266,2.468l4.266,2.453v-1.458h2.469c4.239,0,5.474,0.233,5.474,1.839 c0,1.701-0.523,1.843-3.179,1.843h-4.18c-0.543,0-0.984,0.442-0.984,0.985s0.441,0.99,0.984,0.99h4.18 c2.173,0,5.154,0,5.154-3.818C312.317,439.953,308.539,439.959,304.873,439.959z"/> <path d="M180.125,436.328h-13.271c-0.546,0-0.988,0.441-0.988,0.985v12.934c0,0.543,0.442,0.984,0.988,0.984h13.271 c0.546,0,0.988-0.441,0.988-0.984v-12.934C181.112,436.77,180.67,436.328,180.125,436.328z M179.137,449.257h-11.296v-5.814h5.134 v-5.134h6.155v10.948H179.137z"/> <path d="M238.877,436.546c-0.394-0.314-0.939-0.289-1.303,0.046l-6.865,6.465c-0.292,0.279-0.386,0.705-0.236,1.081 c0.143,0.381,0.513,0.625,0.917,0.625h1.231v5.885c0,0.544,0.442,0.99,0.988,0.99h3.229c0.546,0,0.99-0.446,0.99-0.99v-3.56h1.056 v3.56c0,0.544,0.444,0.99,0.988,0.99h3.943c0.545,0,0.987-0.446,0.987-0.99v-5.687h1.638c0.416,0,0.787-0.26,0.93-0.655 c0.142-0.396,0.015-0.833-0.311-1.097L238.877,436.546z M242.828,443.98v5.688h-1.968v-3.56c0-0.549-0.442-0.99-0.988-0.99h-3.034 c-0.543,0-0.985,0.441-0.985,0.99v3.56h-1.257v-5.886c0-0.467-0.317-0.853-0.751-0.954l4.448-4.194l5.38,4.377 C243.198,443.066,242.828,443.482,242.828,443.98z"/> </g> </g> </g>
</svg>